<svg viewBox="0 0 27 33" xmlns="http://www.w3.org/2000/svg"><path d="M22.696 17.888a7.36 7.36 0 0 1 3.474-6.123 7.56 7.56 0 0 0-5.885-3.18c-2.475-.26-4.876 1.48-6.137 1.48-1.287 0-3.23-1.455-5.321-1.412a7.9 7.9 0 0 0-6.595 4.022C-.62 17.612 1.507 24.868 4.239 28.86c1.366 1.954 2.964 4.137 5.054 4.06 2.045-.085 2.809-1.305 5.277-1.305 2.446 0 3.163 1.305 5.295 1.255 2.195-.035 3.577-1.962 4.896-3.935A16.2 16.2 0 0 0 27 24.374c-2.579-1.09-4.301-3.686-4.304-6.486"/><path d="M18.668 5.96A7.2 7.2 0 0 0 20.311.813a7.3 7.3 0 0 0-4.73 2.447 6.9 6.9 0 0 0-1.686 4.956 6.12 6.12 0 0 0 4.773-2.256"/></svg>